<svg width="36" height="23" viewBox="0 0 36 23" fill="none" xmlns="http://www.w3.org/2000/svg">
<g clip-path="url(#clip0_2171_9798)">
<path d="M-3.60001 -1.36304H39.6V25.037H-3.60001V-1.36304Z" fill="white"/>
<path d="M-3.60001 -1.36304H39.6V25.037H-3.60001V-1.36304Z" fill="white"/>
<path d="M7.73467 14.3522L6.28934 9.74357C6.2732 9.69649 6.26846 9.64624 6.27551 9.59697C6.28256 9.5477 6.3012 9.5008 6.3299 9.46014C6.3586 9.41947 6.39653 9.38618 6.44059 9.36302C6.48464 9.33986 6.53357 9.32748 6.58334 9.3269H9.362C9.57 9.3269 9.72134 9.53557 9.65334 9.74357L8.20334 14.3529C8.18712 14.4023 8.15573 14.4452 8.11365 14.4757C8.07157 14.5062 8.02095 14.5226 7.969 14.5226C7.91706 14.5226 7.86643 14.5062 7.82436 14.4757C7.78228 14.4452 7.75089 14.4016 7.73467 14.3522Z" fill="#4CC8EF"/>
<path d="M4.34399 14.3522L2.89065 9.74284C2.87452 9.69575 2.86978 9.64551 2.87683 9.59624C2.88388 9.54697 2.90252 9.50007 2.93122 9.4594C2.95991 9.41873 2.99785 9.38545 3.0419 9.36229C3.08596 9.33913 3.13488 9.32675 3.18465 9.32617H5.96332C6.17199 9.32617 6.32332 9.53484 6.25532 9.74284L4.80465 14.3522C4.73665 14.5788 4.41932 14.5788 4.34399 14.3522Z" fill="#4CC8EF"/>
<path d="M15.8567 9.31022H13.0367C12.9806 9.31108 12.9253 9.32298 12.8739 9.34523C12.8224 9.36748 12.7759 9.39964 12.7369 9.43988C12.6979 9.48012 12.6672 9.52765 12.6466 9.57975C12.6259 9.63186 12.6158 9.68752 12.6167 9.74355V14.2222C12.6167 14.3889 12.7347 14.5349 12.9033 14.5456C12.9452 14.5473 12.9869 14.5404 13.026 14.5254C13.065 14.5103 13.1006 14.4874 13.1304 14.458C13.1602 14.4286 13.1837 14.3934 13.1993 14.3545C13.215 14.3157 13.2225 14.2741 13.2213 14.2322V12.3522H14.5213C14.656 12.3522 14.7813 12.2482 14.7993 12.1075C14.8037 12.0703 14.8003 12.0326 14.7893 11.9968C14.7783 11.961 14.7601 11.9279 14.7356 11.8995C14.7112 11.8711 14.6811 11.8481 14.6473 11.8319C14.6135 11.8158 14.5768 11.8068 14.5393 11.8055H13.2293V9.85488H15.8493C15.982 9.85488 16.1067 9.75088 16.1247 9.61288C16.1289 9.57506 16.1251 9.53678 16.1136 9.50051C16.102 9.46424 16.083 9.43079 16.0578 9.40233C16.0325 9.37387 16.0016 9.35102 15.9669 9.33527C15.9323 9.31952 15.8947 9.31121 15.8567 9.31088M19.7087 13.9982H17.4847V9.63155C17.4847 9.46488 17.3673 9.31822 17.198 9.30822C17.1562 9.30647 17.1145 9.31332 17.0755 9.32834C17.0365 9.34337 17.001 9.36625 16.9712 9.39556C16.9413 9.42487 16.9179 9.46 16.9022 9.49876C16.8865 9.53752 16.879 9.57908 16.88 9.62088V14.0322C16.88 14.3109 17.0987 14.5456 17.3747 14.5456H19.69C19.8253 14.5456 19.95 14.4409 19.9687 14.3002C19.973 14.263 19.9696 14.2253 19.9586 14.1895C19.9477 14.1537 19.9294 14.1205 19.905 14.0921C19.8805 14.0638 19.8505 14.0408 19.8167 14.0246C19.7829 14.0084 19.7461 13.9994 19.7087 13.9982ZM24.8773 11.9282C24.8773 12.3162 24.784 12.6809 24.6093 13.0015C24.432 13.3215 24.18 13.5736 23.8693 13.7562C23.56 13.9382 23.208 14.0242 22.82 14.0242C22.4509 14.0247 22.0876 13.9325 21.7633 13.7562C21.453 13.5768 21.1979 13.3155 21.026 13.0009C20.8467 12.6718 20.7545 12.3023 20.758 11.9275C20.758 11.5375 20.8487 11.1729 21.026 10.8522C21.2007 10.5322 21.4527 10.2795 21.7633 10.0975C22.0753 9.91488 22.4347 9.82888 22.82 9.82888C23.2087 9.82888 23.56 9.92555 23.87 10.0975C24.18 10.2795 24.432 10.5322 24.61 10.8522C24.7833 11.1722 24.8773 11.5269 24.8773 11.9282ZM24.18 9.61288C23.7682 9.38163 23.303 9.26212 22.8307 9.26622C22.3333 9.26622 21.8727 9.37821 21.4713 9.61288C21.0727 9.8395 20.7419 10.1687 20.5133 10.5662C20.2867 10.9642 20.1693 11.4255 20.1693 11.9282C20.1693 12.4309 20.2867 12.8889 20.5133 13.2876C20.74 13.6856 21.06 14.0062 21.4713 14.2409C21.8727 14.4749 22.3333 14.5869 22.8313 14.5869C23.3253 14.5869 23.7867 14.4749 24.18 14.2402C24.5803 14.0185 24.9096 13.6879 25.13 13.2869C25.3567 12.8809 25.474 12.4202 25.474 11.9282C25.474 11.4255 25.3567 10.9642 25.13 10.5662C24.9033 10.1595 24.5833 9.83955 24.18 9.61288ZM33.052 9.43022C33.027 9.39252 32.9928 9.36176 32.9527 9.34078C32.9126 9.3198 32.8679 9.30929 32.8227 9.31022C32.7649 9.30962 32.7084 9.32793 32.662 9.36234C32.6155 9.39676 32.5816 9.44541 32.5653 9.50088L31.2053 13.6442C31.2053 13.6522 31.1953 13.6522 31.1953 13.6522C31.1873 13.6522 31.1873 13.6522 31.1873 13.6442L29.8467 9.56888C29.8211 9.49239 29.7727 9.4256 29.708 9.37754C29.6432 9.32949 29.5653 9.30249 29.4847 9.30021C29.4037 9.30091 29.325 9.3273 29.2599 9.37558C29.1949 9.42387 29.1468 9.49155 29.1227 9.56888L27.7473 13.6262C27.7473 13.6336 27.7393 13.6336 27.7393 13.6336C27.7293 13.6336 27.7293 13.6336 27.7293 13.6262L26.4033 9.53488C26.3832 9.46897 26.3421 9.41143 26.2862 9.371C26.2304 9.33057 26.1629 9.30947 26.094 9.31088C26.0491 9.30997 26.0048 9.32051 25.9651 9.34151C25.9255 9.3625 25.8918 9.39326 25.8673 9.43088C25.8417 9.46853 25.8253 9.51167 25.8193 9.55683C25.8134 9.60199 25.8182 9.64791 25.8333 9.69088L27.32 14.2482C27.3462 14.3326 27.3983 14.4067 27.4689 14.4599C27.5395 14.5131 27.625 14.5429 27.7133 14.5449C27.8019 14.5425 27.8876 14.5127 27.9585 14.4596C28.0295 14.4064 28.0822 14.3326 28.1093 14.2482L29.4427 10.2642C29.4427 10.2535 29.4507 10.2535 29.458 10.2535C29.458 10.2535 29.4687 10.2535 29.4767 10.2642L30.802 14.2482C30.8296 14.3339 30.8835 14.4086 30.956 14.4619C31.0286 14.5151 31.116 14.5442 31.206 14.5449C31.2955 14.5437 31.3823 14.5144 31.4542 14.4612C31.5261 14.4079 31.5794 14.3334 31.6067 14.2482L33.0933 9.69088C33.1051 9.64707 33.1074 9.60128 33.1003 9.55648C33.0932 9.51169 33.0767 9.46823 33.052 9.43022Z" fill="black"/>
<path d="M9.43734 14.3522L7.98401 9.74284C7.96785 9.6957 7.96312 9.6454 7.97021 9.59608C7.97729 9.54675 7.99599 9.49982 8.02476 9.45914C8.05354 9.41845 8.09156 9.38518 8.1357 9.36207C8.17984 9.33895 8.22885 9.32665 8.27867 9.32617H11.0573C11.2653 9.32617 11.4167 9.53484 11.3487 9.74284L9.89867 14.3448C9.83067 14.5788 9.50267 14.5788 9.43734 14.3522Z" fill="#111111"/>
<path d="M6.03933 14.3522L4.586 9.74284C4.56986 9.69575 4.56512 9.64551 4.57217 9.59624C4.57923 9.54697 4.59786 9.50007 4.62656 9.4594C4.65526 9.41873 4.69319 9.38545 4.73725 9.36229C4.7813 9.33913 4.83023 9.32675 4.88 9.32617H7.65866C7.86733 9.32617 8.01866 9.53484 7.95066 9.74284L6.508 14.3522C6.49178 14.4015 6.46039 14.4445 6.41831 14.475C6.37623 14.5054 6.32561 14.5218 6.27366 14.5218C6.22172 14.5218 6.1711 14.5054 6.12902 14.475C6.08694 14.4445 6.05555 14.4015 6.03933 14.3522Z" fill="#111111"/>
</g>
<defs>
<clipPath id="clip0_2171_9798">
<rect y="0.836914" width="36" height="22" rx="6" fill="white"/>
</clipPath>
</defs>
</svg>
