<svg width="36" height="23" viewBox="0 0 36 23" fill="none" xmlns="http://www.w3.org/2000/svg">
<g clip-path="url(#clip0_2171_9834)">
<path d="M-3.60001 -1.36304H39.6V25.037H-3.60001V-1.36304Z" fill="white"/>
<path d="M-3.60001 -1.36304H39.6V25.037H-3.60001V-1.36304Z" fill="white"/>
<mask id="mask0_2171_9834" style="mask-type:luminance" maskUnits="userSpaceOnUse" x="7" y="17" width="22" height="4">
<path d="M7.33331 17.5037H28.6666V20.537H7.33331V17.5037Z" fill="white"/>
</mask>
<g mask="url(#mask0_2171_9834)">
<path d="M10.7813 20.4409V19.2849C10.7813 18.8396 10.5133 18.5503 10.0493 18.5503C9.81796 18.5503 9.56796 18.6283 9.39329 18.8783C9.25796 18.6676 9.06529 18.5503 8.77596 18.5503C8.67013 18.5459 8.56495 18.5686 8.47026 18.616C8.37558 18.6635 8.2945 18.7342 8.23463 18.8216V18.5896H7.83063V20.4409H8.23463V19.4176C8.23463 19.0923 8.40863 18.9356 8.67996 18.9356C8.94796 18.9356 9.08329 19.1103 9.08329 19.4176V20.4409H9.48996V19.4176C9.48996 19.0923 9.68196 18.9356 9.93196 18.9356C10.2033 18.9356 10.3386 19.1103 10.3386 19.4176V20.4409H10.7813ZM16.7813 18.5896H16.128V18.0296H15.7213V18.5896H15.3546V18.9563H15.7213V19.8056C15.7213 20.2276 15.896 20.4803 16.3566 20.4803C16.5313 20.4803 16.7233 20.4229 16.8593 20.3449L16.7446 19.9983C16.6397 20.0624 16.5189 20.0959 16.396 20.0949C16.2026 20.0949 16.1273 19.9776 16.1273 19.7849V18.9569H16.7806L16.7813 18.5896ZM20.216 18.5503C20.1188 18.5485 20.023 18.5727 19.9383 18.6204C19.8537 18.6681 19.7834 18.7376 19.7346 18.8216V18.5896H19.328V20.4409H19.7346V19.3996C19.7346 19.0923 19.87 18.9176 20.12 18.9176C20.198 18.9176 20.294 18.9356 20.3726 18.9569L20.4866 18.5716C20.4086 18.5503 20.294 18.5503 20.216 18.5503ZM15.026 18.7436C14.8333 18.6076 14.5626 18.5503 14.2733 18.5503C13.81 18.5503 13.5026 18.7823 13.5026 19.1496C13.5026 19.4563 13.7346 19.6309 14.138 19.6883L14.3333 19.7096C14.544 19.7456 14.6586 19.8056 14.6586 19.9023C14.6586 20.0349 14.5053 20.1309 14.2346 20.1309C13.966 20.1309 13.7526 20.0349 13.6173 19.9383L13.424 20.2483C13.638 20.4016 13.9273 20.4803 14.216 20.4803C14.758 20.4803 15.0653 20.2269 15.0653 19.8809C15.0653 19.5529 14.8153 19.3809 14.43 19.3209L14.2346 19.3029C14.0626 19.2849 13.9273 19.2456 13.9273 19.1283C13.9273 18.9956 14.0626 18.9176 14.274 18.9176C14.5053 18.9176 14.7366 19.0143 14.854 19.0709L15.026 18.7436ZM25.7913 18.5503C25.6942 18.5487 25.5985 18.5731 25.5139 18.6207C25.4293 18.6684 25.3589 18.7377 25.31 18.8216V18.5896H24.906V20.4409H25.31V19.3996C25.31 19.0923 25.4453 18.9176 25.6953 18.9176C25.7733 18.9176 25.87 18.9356 25.948 18.9569L26.0626 18.5716C25.9866 18.5503 25.8693 18.5503 25.7913 18.5503ZM20.6226 19.5143C20.6226 20.0743 21.008 20.4803 21.6066 20.4803C21.8753 20.4803 22.07 20.4229 22.2633 20.2669L22.07 19.9383C21.914 20.0556 21.7606 20.1129 21.586 20.1129C21.258 20.1129 21.026 19.8809 21.026 19.5143C21.026 19.1676 21.258 18.9356 21.586 18.9176C21.7606 18.9176 21.914 18.9749 22.07 19.0923L22.2633 18.7643C22.07 18.6076 21.8746 18.5509 21.6066 18.5509C21.008 18.5509 20.6226 18.9569 20.6226 19.5143ZM24.3646 19.5143V18.5896H23.9606V18.8216C23.8253 18.6469 23.6326 18.5503 23.3806 18.5503C22.8593 18.5503 22.456 18.9569 22.456 19.5143C22.456 20.0743 22.8593 20.4803 23.38 20.4803C23.6513 20.4803 23.844 20.3836 23.9606 20.2096V20.4409H24.3646V19.5143ZM22.88 19.5143C22.88 19.1883 23.0913 18.9176 23.44 18.9176C23.768 18.9176 23.9973 19.1676 23.9973 19.5143C23.9973 19.8423 23.768 20.1129 23.44 20.1129C23.0913 20.0949 22.88 19.8423 22.88 19.5143ZM18.0366 18.5503C17.4973 18.5503 17.11 18.9356 17.11 19.5143C17.11 20.0943 17.4973 20.4803 18.0546 20.4803C18.3253 20.4803 18.5966 20.4023 18.8073 20.2269L18.614 19.9383C18.4606 20.0556 18.268 20.1316 18.0753 20.1316C17.8253 20.1316 17.5726 20.0169 17.5153 19.6883H18.8853V19.5349C18.9033 18.9356 18.5573 18.5503 18.0366 18.5503ZM18.0366 18.8969C18.2866 18.8969 18.4606 19.0529 18.5 19.3423H17.5333C17.5733 19.0923 17.7473 18.8969 18.0366 18.8969ZM28.0886 19.5143V17.8569H27.6846V18.8209C27.5493 18.6463 27.3566 18.5496 27.1046 18.5496C26.5833 18.5496 26.18 18.9563 26.18 19.5136C26.18 20.0736 26.5833 20.4796 27.104 20.4796C27.3753 20.4796 27.568 20.3829 27.6846 20.2089V20.4403H28.0886V19.5143ZM26.604 19.5143C26.604 19.1883 26.8153 18.9176 27.1613 18.9176C27.4893 18.9176 27.7213 19.1676 27.7213 19.5143C27.7213 19.8423 27.4893 20.1129 27.1613 20.1129C26.8146 20.0949 26.604 19.8423 26.604 19.5143ZM13.06 19.5143V18.5896H12.6533V18.8216C12.518 18.6469 12.3253 18.5503 12.0753 18.5503C11.5546 18.5503 11.1486 18.9569 11.1486 19.5143C11.1486 20.0743 11.5546 20.4803 12.0753 20.4803C12.344 20.4803 12.5366 20.3836 12.6533 20.2096V20.4409H13.06V19.5143ZM11.5546 19.5143C11.5546 19.1883 11.7653 18.9176 12.112 18.9176C12.44 18.9176 12.672 19.1676 12.672 19.5143C12.672 19.8423 12.44 20.1129 12.112 20.1129C11.7653 20.0949 11.5546 19.8423 11.5546 19.5143Z" fill="black"/>
</g>
<path d="M14.8907 4.53223H20.9687V15.4462H14.8907V4.53223Z" fill="#FF5F00"/>
<mask id="mask1_2171_9834" style="mask-type:luminance" maskUnits="userSpaceOnUse" x="6" y="3" width="12" height="15">
<path d="M6.69336 3.03687H18V17.5035H6.69336V3.03687Z" fill="white"/>
</mask>
<g mask="url(#mask1_2171_9834)">
<path d="M15.2787 9.98857C15.2787 7.7719 16.32 5.80324 17.922 4.53257C16.7022 3.56871 15.1927 3.04488 13.638 3.0459C12.726 3.0452 11.8227 3.22428 10.9799 3.5729C10.1372 3.92152 9.37135 4.43285 8.72631 5.07764C8.08127 5.72243 7.56965 6.48804 7.22071 7.3307C6.87177 8.17335 6.69234 9.07652 6.69269 9.98857C6.69216 10.9006 6.87147 11.8039 7.22036 12.6466C7.56926 13.4893 8.08088 14.2549 8.72596 14.8997C9.37104 15.5444 10.1369 16.0557 10.9798 16.4042C11.8227 16.7527 12.726 16.9315 13.638 16.9306C15.258 16.9306 16.7447 16.3706 17.922 15.4459C17.0965 14.7961 16.4295 13.967 15.9716 13.0214C15.5136 12.0759 15.2767 11.0385 15.2787 9.98791V9.98857Z" fill="#EB001B"/>
</g>
<mask id="mask2_2171_9834" style="mask-type:luminance" maskUnits="userSpaceOnUse" x="17" y="3" width="13" height="15">
<path d="M17.3333 3.03687H29.1933V17.5035H17.3333V3.03687Z" fill="white"/>
</mask>
<g mask="url(#mask2_2171_9834)">
<path d="M29.1693 9.98808C29.1693 13.8261 26.0627 16.9307 22.224 16.9307C20.6013 16.9307 19.1173 16.3707 17.94 15.4461C18.7669 14.7974 19.4348 13.9686 19.8929 13.0228C20.351 12.0769 20.5871 11.039 20.5833 9.98808C20.5833 7.77141 19.5413 5.80275 17.94 4.53208C19.1596 3.56781 20.6693 3.04392 22.224 3.04541C26.0627 3.04541 29.1693 6.17008 29.1693 9.98808Z" fill="#F79E1B"/>
</g>
</g>
<defs>
<clipPath id="clip0_2171_9834">
<rect y="0.836914" width="36" height="22" rx="6" fill="white"/>
</clipPath>
</defs>
</svg>
