<svg width="36" height="23" viewBox="0 0 36 23" fill="none" xmlns="http://www.w3.org/2000/svg">
<g clip-path="url(#clip0_2171_9806)">
<path d="M-3.60001 -1.36304H39.6V25.037H-3.60001V-1.36304Z" fill="white"/>
<path d="M-3.60001 -1.36304H39.6V25.037H-3.60001V-1.36304Z" fill="white"/>
<path d="M13.0987 16.4749L14.6747 7.14955H17.198L15.62 16.4749H13.0987ZM24.7634 7.38088C24.2654 7.19088 23.482 6.98755 22.5054 6.98755C20.0134 6.98755 18.258 8.25355 18.242 10.0662C18.2287 11.4049 19.4953 12.1522 20.4507 12.5996C21.432 13.0556 21.7634 13.3476 21.7574 13.7562C21.7527 14.3809 20.974 14.6649 20.25 14.6649C19.242 14.6649 18.706 14.5249 17.8773 14.1756L17.552 14.0296L17.198 16.1156C17.7867 16.3756 18.8747 16.6022 20.008 16.6129C22.6587 16.6129 24.3774 15.3629 24.396 13.4282C24.406 12.3682 23.7347 11.5609 22.2814 10.8942C21.3987 10.4616 20.8594 10.1756 20.8647 9.73822C20.8647 9.35022 21.32 8.93555 22.31 8.93555C22.9565 8.92176 23.5987 9.04348 24.1954 9.29288L24.422 9.40222L24.7634 7.38088ZM31.2294 7.15955H29.2814C28.6774 7.15955 28.2267 7.32622 27.9614 7.93288L24.216 16.4776H26.8647C26.8647 16.4776 27.2967 15.3289 27.396 15.0762L30.6227 15.0816C30.698 15.4069 30.9294 16.4776 30.9294 16.4776H33.2707L31.2294 7.15955ZM28.12 13.1702L29.1254 10.5609C29.1094 10.5869 29.3307 10.0216 29.4587 9.67288L29.63 10.4749L30.2134 13.1682H28.12M10.9847 7.15688L8.51535 13.5169L8.25268 12.2249C7.79401 10.7329 6.36201 9.12088 4.76068 8.31355L7.01802 16.4669L9.68468 16.4616L13.656 7.15688H10.9847Z" fill="#00589F"/>
<mask id="mask0_2171_9806" style="mask-type:luminance" maskUnits="userSpaceOnUse" x="2" y="6" width="7" height="7">
<path d="M2.20001 6.83691H8.66668V12.8369H2.20001V6.83691Z" fill="white"/>
</mask>
<g mask="url(#mask0_2171_9806)">
<path d="M6.22668 7.15228H2.15868L2.12735 7.34494C5.29135 8.11828 7.38535 9.98295 8.25268 12.2249L7.37002 7.93828C7.21668 7.34761 6.77335 7.17361 6.22668 7.15228Z" fill="#F9A51A"/>
</g>
</g>
<defs>
<clipPath id="clip0_2171_9806">
<rect y="0.836914" width="36" height="22" rx="6" fill="white"/>
</clipPath>
</defs>
</svg>
